# Blender v2.76 (sub 0) OBJ File: 'untitled.blend'
# www.blender.org
mtllib wb_in.mtl
o wb_in_mesh
v -0.599999 0.753381 0.258908
v 0.599998 0.753381 0.258908
v -0.599999 0.753381 -0.213193
v 0.599998 0.753381 -0.213193
v -0.599999 2.110002 0.258973
v 0.599998 2.110002 0.258973
v -0.599999 2.110002 -0.213193
v 0.599998 2.110002 -0.213193
v -0.469153 2.207339 0.258887
v 0.484769 2.207339 0.258887
vt 0.697212 0.000095
vt 0.697212 0.196912
vt 0.196938 0.196912
vt 0.196938 0.000095
vt 0.697213 0.959325
vt 0.196939 0.762482
vt 0.697213 0.762481
vt 0.196939 0.959326
vt 0.000095 0.762482
vt 0.000121 0.196912
vt 0.894029 0.196911
vt 0.894057 0.762481
vt 0.251488 0.999906
vt 0.649175 0.999905
vn 0.000000 1.000000 0.000000
vn 0.000000 -1.000000 0.000000
vn 0.000000 -0.000000 1.000000
vn 1.000000 -0.000000 0.000000
vn -1.000000 -0.000000 0.000000
vn 0.000000 0.000900 1.000000
usemtl None
s off
f 2/1/1 4/2/1 3/3/1
f 3/3/1 1/4/1 2/1/1
f 6/5/2 7/6/2 8/7/2
f 7/6/2 6/5/2 5/8/2
f 7/6/3 3/3/3 8/7/3
f 3/3/3 4/2/3 8/7/3
f 5/9/4 3/3/4 7/6/4
f 3/3/4 5/9/4 1/10/4
f 4/2/5 2/11/5 8/7/5
f 8/7/5 2/11/5 6/12/5
f 9/13/6 5/8/6 10/14/6
f 6/5/6 10/14/6 5/8/6
