# Blender v2.76 (sub 0) OBJ File: 'scene.blend'
# www.blender.org
mtllib wb_in.mtl
o s4studio_mesh_0.002
v -0.278781 2.298870 0.195957
v -0.503099 2.152072 0.195957
v 0.276927 2.304048 0.200158
v -0.529971 0.779581 0.257468
v -0.510572 0.781769 -0.248977
v -0.653968 0.783190 0.255582
v -0.652818 0.782374 -0.250083
v -0.652818 2.157287 -0.250083
v -0.657572 2.080590 0.167271
v -0.652818 2.071397 -0.250083
v -0.661664 2.152091 0.157102
v -0.653968 2.072213 0.255582
v 0.000000 0.779597 -0.245009
v 0.000000 0.783190 0.258514
v 0.524263 0.783190 0.258514
v 0.519077 0.782052 -0.249512
v 0.661088 0.783190 0.261352
v 0.663945 0.782737 -0.250769
v 0.653800 2.089038 0.161908
v 0.661088 2.076612 0.261352
v 0.663945 2.076160 -0.250769
v 0.663945 2.157481 -0.250769
v 0.653800 2.152025 0.149600
v 0.005563 2.157384 -0.250426
v 0.005563 2.073778 -0.250426
v 0.501896 2.152034 0.148109
v 0.000039 2.152058 0.143698
v -0.498952 2.152083 0.153666
v 0.501896 2.152034 0.200158
v -0.524263 2.085424 0.258514
v 0.524263 2.085424 0.258514
vt 0.000000 0.000000
vn -0.007700 0.011700 0.999900
vn 0.029000 0.999600 0.005400
vn 0.004300 1.000000 -0.001600
vn 0.999900 0.000000 0.011400
vn 0.997900 0.060300 0.022400
vn 1.000000 0.002900 0.002300
vn 0.999200 0.000000 -0.040800
vn 0.004200 1.000000 0.004500
vn -0.006800 1.000000 -0.007100
vn 0.000000 1.000000 -0.007100
vn -0.004700 1.000000 -0.002200
vn 0.000000 1.000000 -0.002200
vn -0.004700 1.000000 -0.000900
vn -0.997300 -0.000000 0.073100
vn -1.000000 -0.006000 -0.005600
vn -0.999700 0.000000 -0.024600
vn -0.999700 -0.005000 -0.025400
vn 0.000500 -0.000000 1.000000
vn 0.000500 0.004200 1.000000
vn -0.007800 0.000000 1.000000
vn 0.008700 -0.000000 1.000000
vn -0.000000 -0.999900 -0.013400
vn 0.000100 -0.999900 -0.013600
vn -0.000100 -0.999900 -0.013500
vn -0.000100 -0.999900 -0.013000
vn -0.004200 -0.006200 1.000000
vn -0.000000 -1.000000 0.000000
vn -0.000100 -1.000000 -0.000300
vn -0.000000 -1.000000 -0.000100
vn 0.000000 -0.999900 -0.012900
vn -0.000300 -0.999900 -0.012800
vn 0.015200 0.000700 -0.999900
vn 0.022600 0.000000 -0.999700
vn 0.020700 0.000000 -0.999800
usemtl DIFFUSE.003
s 1
f 1/1/1 2/1/1 3/1/1
f 4/1/2 5/1/2 6/1/2
f 6/1/3 5/1/3 7/1/3
f 8/1/4 9/1/4 10/1/4
f 9/1/5 8/1/5 11/1/5
f 9/1/4 7/1/4 10/1/4
f 7/1/6 9/1/6 6/1/6
f 6/1/7 9/1/7 12/1/7
f 4/1/8 13/1/8 5/1/8
f 4/1/9 14/1/9 13/1/9
f 14/1/10 15/1/10 13/1/10
f 13/1/11 15/1/11 16/1/11
f 16/1/12 15/1/12 17/1/12
f 16/1/13 17/1/13 18/1/13
f 19/1/14 17/1/14 20/1/14
f 17/1/15 19/1/15 18/1/15
f 18/1/16 19/1/16 21/1/16
f 19/1/16 22/1/16 21/1/16
f 22/1/17 19/1/17 23/1/17
f 10/1/18 24/1/18 8/1/18
f 10/1/18 25/1/18 24/1/18
f 24/1/18 21/1/18 22/1/18
f 24/1/18 25/1/18 21/1/18
f 13/1/19 25/1/19 10/1/19
f 21/1/19 25/1/19 13/1/19
f 5/1/20 10/1/20 7/1/20
f 16/1/21 18/1/21 21/1/21
f 24/1/22 26/1/23 27/1/24
f 27/1/24 28/1/25 24/1/22
f 2/1/26 29/1/26 3/1/26
f 29/1/27 27/1/27 26/1/27
f 28/1/28 27/1/29 2/1/28
f 2/1/28 27/1/29 29/1/29
f 8/1/30 28/1/25 11/1/31
f 24/1/22 28/1/25 8/1/30
f 22/1/23 26/1/23 24/1/22
f 23/1/23 26/1/23 22/1/23
f 6/1/32 30/1/32 4/1/32
f 12/1/33 30/1/33 6/1/33
f 15/1/34 31/1/34 17/1/34
f 17/1/34 31/1/34 20/1/34
f 5/1/20 13/1/20 10/1/20
f 13/1/21 16/1/21 21/1/21
